<svg xmlns="http://www.w3.org/2000/svg" viewBox="0 28 44 28">
  <path d="M 0.6 56 C 2.47 56 4.56 55.2 5.6 54.5 C 5.9 54.3 6.1 54.3 6.4 54.5 C 7.44 55.22 9.55 56 12 56 C 15.56 56 17.94 54.49 19.7 52.91 L 23.9 48.7 C 24.1 48.5 24.6 48.5 24.7 48.9 C 25.63 52.68 28.18 56 32 56 C 33.72 56 35.23 55.3 36.38 54.16 L 40.41 50.13 C 43.27 47.2 44 42.31 44 40 C 44 36 41 28 36.6 28 C 36.2 28 35.8 28.2 35.5 28.5 L 32.5 31.5 C 32.3 31.7 32.2 32 32.7 32 C 38 32 40 40 40 44 C 40 47.37 38.8 50.7 38.2 51.3 C 37.7 51.8 36.73 52 36 52 C 30 52 28 44 28 40 C 28 36 25 28 20.6 28 C 20.2 28 19.8 28.2 19.5 28.5 L 16.5 31.5 C 16.3 31.7 16.2 32 16.6 32 C 22 32 24 40 24 44 C 24 46.27 22.5 49.5 21.8 50.3 C 20.9 51.2 18.16 52 16 52 C 13.77 52 11.56 51.27 10.8 50.7 C 10.4 50.5 10.4 50.2 10.6 50 L 12.13 48.49 C 14.41 46.05 16 42.71 16 40 L 12 44 C 12 46.4 10.68 49 10.2 49.7 C 10 50 9.7 50 9.5 49.9 C 6.89 48.33 4 43.7 4 40 C 4 37.71 4.4 34 5.1 32.6 C 5.3 32.2 5.76 32 6 32 C 11.1 32.05 12 40.2 12 44 L 16 40 C 16 36 15 28 10 28 C 8.85 28 7.78 28.43 6.87 29.4 L 3.1 33.17 C 0.56 35.65 0 40.84 0 44 C 0.01 47.68 2.79 51.47 3.3 51.9 C 3.6 52.2 3.5 52.5 3.3 52.7 L 0.5 55.5 C 0.3 55.7 0.2 56 0.6 56 Z" fill="#000000"/>
</svg>